<svg xmlns="http://www.w3.org/2000/svg" version="1.1" xmlns:xlink="http://www.w3.org/1999/xlink" xmlns:svgjs="http://svgjs.dev/svgjs" width="1366" height="768" preserveAspectRatio="none" viewBox="0 0 1366 768">
    <g mask="url(#SvgjsMask1041)" fill="none">
        <rect width="1366" height="768" x="0" y="0" fill="rgba(22, 109, 187, 1)"></rect>
        <path d="M0 0L668.59 0L0 106.86z" fill="rgba(255, 255, 255, .1)"></path>
        <path d="M0 106.86L668.59 0L904.36 0L0 467.81z" fill="rgba(255, 255, 255, .075)"></path>
        <path d="M0 467.81L904.36 0L1007.79 0L0 541.13z" fill="rgba(255, 255, 255, .05)"></path>
        <path d="M0 541.13L1007.79 0L1159.27 0L0 546.06z" fill="rgba(255, 255, 255, .025)"></path>
        <path d="M1366 768L726.53 768L1366 687.26z" fill="rgba(0, 0, 0, .1)"></path>
        <path d="M1366 687.26L726.53 768L529.02 768L1366 550.03z" fill="rgba(0, 0, 0, .075)"></path>
        <path d="M1366 550.03L529.02 768L445.07 768L1366 370.96999999999997z" fill="rgba(0, 0, 0, .05)"></path>
        <path d="M1366 370.97L445.06999999999994 768L193.88999999999993 768L1366 319.97z" fill="rgba(0, 0, 0, .025)"></path>
    </g>
    <defs>
        <mask id="SvgjsMask1041">
            <rect width="1366" height="768" fill="#ffffff"></rect>
        </mask>
    </defs>
</svg>